<svg id="Layer_1" data-name="Layer 1" xmlns="http://www.w3.org/2000/svg" viewBox="0 0 612 102"><defs><style>.cls-1{isolation:isolate;}.cls-2{fill:#fff;}</style></defs><title>Artboard 1</title><g id="BANANAA" class="cls-1"><g class="cls-1"><path class="cls-2" d="M37.2,9.2q5.75,0,13.69,6t7.94,13a29.37,29.37,0,0,1-1.61,10.36q-1.38,4.83-6.56,8.51A174.79,174.79,0,0,1,68,56.37q6,3.8,6.1,14-1.5,4.49-1.67,5.06a27.31,27.31,0,0,1-1.32,2.88A38.38,38.38,0,0,1,53.54,96Q43,101.25,29,101.25q-10,0-16-2.88L2,93.08.61,87l2-2.65L12.81,85q-1-4.72-1.73-8.28-.58-2.53-1.5-8.05a67.42,67.42,0,0,1-.92-11.28q-.12-5.29,1.27-7.59l2.88-2.76a17.28,17.28,0,0,0-1-2.88q0-.23-1-3.68a30.51,30.51,0,0,1-1-8.63Q9.7,9.2,37.2,9.2ZM20.52,26.8l.58,19.79a67.66,67.66,0,0,1,9.67-1.51,26.75,26.75,0,0,0,7.59-1.63,32.09,32.09,0,0,0,9.2-6.15l2.07-6-2.07-8.71a13.35,13.35,0,0,0-6.67-1.74H31.68q-8.52-.23-9.67,2.07Zm.58,36.59V85q0,2.76,4.24,2.76A42.87,42.87,0,0,0,34,86.4,42.82,42.82,0,0,1,42.66,85L51,81.92q7.34-2.76,9.29-7.71l-2.75-9.67q-3.21-2.18-13-4.26a73,73,0,0,0-13.88-2,17.68,17.68,0,0,0-7.05,1.15A4,4,0,0,0,21.09,63.39Z"/><path class="cls-2" d="M119,.45q10.24-.11,18.64,17.26Q147,36.93,149.5,48.2l10.59,45-.92,3.34a6.58,6.58,0,0,1-2,3.11,6.77,6.77,0,0,1-2.65,1.38l-2.3.23A15.17,15.17,0,0,1,149,101l-2.76-.8V94.46l.11-5.52q.23-8.74-2.47-12.77t-11.22-4q-23.93-.11-29.92,2.36T93.58,85q-3.22,8.06-11.74,14.61l-2.76.81-3,.23A3.58,3.58,0,0,1,73,99.41a8.55,8.55,0,0,1-.46-3.11,34.34,34.34,0,0,1,.81-7.36,62.18,62.18,0,0,1,2.07-7.25q3.34-7.94,11.51-36.36,6.79-23.24,13.58-35Q106.24.57,119,.45ZM96.92,64.08l6.44-.92,4-.34,10.47.8a22.48,22.48,0,0,0,7.48-1.5q4.14-1.38,10.7-6.1-1.38-10.35-7.36-25.2-5.87-14.38-9-14.5l-2.07-.23h-1q-10.24,0-12.43,19.56T96.92,64.08Z"/><path class="cls-2" d="M254,17.94l-1.61,26.12q-1.5,9.55-1.73,12.2a106.82,106.82,0,0,0-.69,11.16A80.88,80.88,0,0,1,246.49,91q-2.07,6.9-7.94,7-4,.12-10.7-4.14l-39-49.94a3.89,3.89,0,0,0-1.38-.81q-2.19,0-3.22,9.55a115.19,115.19,0,0,0-.58,11.51q0,20.6,3.91,29.69l-.81,2.42a9.67,9.67,0,0,1-1.15,2.53q-1.15,2.42-4.83,2.42a9,9,0,0,1-5.87-2.65l-2.76-3.11L167,70.87a53.44,53.44,0,0,1-1.15-10.93q0-14,5.81-24.62t14-10.7q5.41-.11,17.83,14.5,2.18,2.65,15,19.21,12,15.65,14,15.76c.38,0,.69-.54.92-1.61q0-2-.12-10.7l-.11-9.09-.46-18.53q-.34-11.85,2.3-18.64l3.91-4.14a6.78,6.78,0,0,1,4.83-2.19,7.38,7.38,0,0,1,5.87,2.88Q251,14,254,17.94Z"/><path class="cls-2" d="M298.5.45q10.24-.11,18.64,17.26Q326.46,36.93,329,48.2l10.59,45-.92,3.34a6.58,6.58,0,0,1-2,3.11,6.75,6.75,0,0,1-2.65,1.38l-2.3.23a15.15,15.15,0,0,1-3.22-.23l-2.76-.8V94.46l.12-5.52q.23-8.74-2.47-12.77t-11.22-4q-23.93-.11-29.92,2.36T273.07,85q-3.22,8.06-11.74,14.61l-2.76.81-3,.23a3.58,3.58,0,0,1-3.11-1.27A8.55,8.55,0,0,1,252,96.3a34.34,34.34,0,0,1,.81-7.36,62.18,62.18,0,0,1,2.07-7.25q3.34-7.94,11.51-36.36,6.79-23.24,13.58-35Q285.73.57,298.5.45ZM276.41,64.08l6.44-.92,4-.34,10.47.8a22.48,22.48,0,0,0,7.48-1.5q4.14-1.38,10.7-6.1-1.38-10.35-7.37-25.2-5.87-14.38-9-14.5l-2.07-.23h-1q-10.24,0-12.43,19.56T276.41,64.08Z"/><path class="cls-2" d="M433.46,17.94l-1.61,26.12q-1.5,9.55-1.73,12.2a106.57,106.57,0,0,0-.69,11.16A80.86,80.86,0,0,1,426,91q-2.07,6.9-7.94,7-4,.12-10.7-4.14l-39-49.94a3.9,3.9,0,0,0-1.38-.81q-2.19,0-3.22,9.55a115.19,115.19,0,0,0-.58,11.51q0,20.6,3.91,29.69l-.8,2.42a9.71,9.71,0,0,1-1.15,2.53q-1.15,2.42-4.83,2.42a9,9,0,0,1-5.87-2.65l-2.76-3.11-5.18-24.62a53.44,53.44,0,0,1-1.15-10.93q0-14,5.81-24.62t14-10.7q5.41-.11,17.83,14.5,2.18,2.65,15,19.21,12,15.65,14,15.76c.38,0,.69-.54.92-1.61q0-2-.11-10.7l-.12-9.09-.46-18.53q-.35-11.85,2.3-18.64l3.91-4.14a6.78,6.78,0,0,1,4.83-2.19,7.38,7.38,0,0,1,5.87,2.88Q430.47,14,433.46,17.94Z"/><path class="cls-2" d="M478,.45q10.24-.11,18.64,17.26Q506,36.93,508.48,48.2l10.58,45-.92,3.34a6.58,6.58,0,0,1-2,3.11,6.77,6.77,0,0,1-2.65,1.38l-2.3.23A15.16,15.16,0,0,1,508,101l-2.76-.8V94.46l.12-5.52q.23-8.74-2.47-12.77t-11.22-4q-23.93-.11-29.92,2.36T452.56,85q-3.22,8.06-11.74,14.61l-2.76.81-3,.23A3.58,3.58,0,0,1,432,99.41a8.54,8.54,0,0,1-.46-3.11,34.38,34.38,0,0,1,.81-7.36,62.08,62.08,0,0,1,2.07-7.25q3.34-7.94,11.51-36.36,6.79-23.24,13.58-35Q465.22.57,478,.45ZM455.9,64.08l6.44-.92,4-.34,10.47.8a22.48,22.48,0,0,0,7.48-1.5q4.14-1.38,10.7-6.1-1.38-10.35-7.36-25.2-5.87-14.38-9-14.5l-2.07-.23h-1q-10.24,0-12.43,19.56T455.9,64.08Z"/><path class="cls-2" d="M570.61.45q10.24-.11,18.64,17.26,9.32,19.22,11.85,30.49l10.58,45-.92,3.34a6.58,6.58,0,0,1-2,3.11,6.77,6.77,0,0,1-2.65,1.38l-2.3.23a15.16,15.16,0,0,1-3.22-.23l-2.76-.8V94.46l.12-5.52q.23-8.74-2.47-12.77t-11.22-4q-23.93-.11-29.92,2.36T545.19,85Q542,93.08,533.45,99.63l-2.76.81-3,.23a3.58,3.58,0,0,1-3.11-1.27,8.54,8.54,0,0,1-.46-3.11,34.38,34.38,0,0,1,.81-7.36A62.08,62.08,0,0,1,527,81.69q3.34-7.94,11.51-36.36,6.79-23.24,13.58-35Q557.84.57,570.61.45ZM548.52,64.08l6.44-.92,4-.34,10.47.8a22.48,22.48,0,0,0,7.48-1.5q4.14-1.38,10.7-6.1-1.38-10.35-7.36-25.2-5.87-14.38-9-14.5l-2.07-.23h-1q-10.24,0-12.43,19.56T548.52,64.08Z"/></g></g></svg>